name C:\Users\antoi\Documents\MyRepositories\predsim_tutorial\Results\Case_1\GRF.mot
datacolumns 19
datarows 10
range 0.00000000 0.20257285
endheader 
time	r_ground_force_vx	r_ground_force_vy	r_ground_force_vz	r_ground_force_px	r_ground_force_py	r_ground_force_pz	l_ground_force_vx	l_ground_force_vy	l_ground_force_vz	l_ground_force_px	l_ground_force_py	l_ground_force_pz	r_ground_torque_x	r_ground_torque_y	r_ground_torque_z	l_ground_torque_x	l_ground_torque_y	l_ground_torque_z	
          0.00000000	        -13.59783944	        298.39516119	         -7.23421136	          0.19275835	          0.00000000	          0.04299518	         66.29353003	        366.07347436	          3.67341711	         -0.32810254	          0.00000000	         -0.06715257	          0.00000000	         -0.00017005	          0.00000000	          0.00000000	         -2.95567400	          0.00000000	
          0.02250809	        -77.27925000	        568.35370904	        -11.19768222	          0.19450163	          0.00000000	          0.04293288	         44.14788734	        270.27135098	         -6.84591231	         -0.32169186	          0.00000000	         -0.06651751	          0.00000000	         -0.11186876	          0.00000000	          0.00000000	         -1.90829545	          0.00000000	
          0.04501619	        -99.99868653	        705.08232241	        -12.37899709	          0.20261964	          0.00000000	          0.04555718	         27.67522109	        166.95297039	        -19.26466907	         -0.31739539	          0.00000000	         -0.06067299	          0.00000000	         -1.05485699	          0.00000000	          0.00000000	         -0.96245471	          0.00000000	
          0.06752428	       -101.17806654	        745.72716989	        -15.62053871	          0.21239758	          0.00000000	          0.04865963	         -8.79142022	         51.33353050	        -11.15960677	         -0.30871002	          0.00000000	         -0.04084537	          0.00000000	         -1.48489547	          0.00000000	          0.00000000	         -0.13349617	          0.00000000	
          0.09003238	        -82.61774644	        723.56988991	        -13.74071385	          0.22154133	          0.00000000	          0.04955085	          0.00000000	          0.00000000	          0.00000000	          0.00000000	          0.00000000	          0.00000000	          0.00000000	         -2.30621185	          0.00000000	          0.00000000	          0.00000000	          0.00000000	
          0.11254047	        -66.69576923	        678.85438944	        -12.81647416	          0.23266611	          0.00000000	          0.04832548	          0.00000000	          0.00000000	          0.00000000	          0.00000000	          0.00000000	          0.00000000	          0.00000000	         -3.65078722	          0.00000000	          0.00000000	          0.00000000	          0.00000000	
          0.13504857	        -50.40116510	        625.42502916	        -13.13196368	          0.24254634	          0.00000000	          0.04769948	          0.00000000	          0.00000000	          0.00000000	          0.00000000	          0.00000000	          0.00000000	          0.00000000	         -4.65654198	          0.00000000	          0.00000000	          0.00000000	          0.00000000	
          0.15755666	        -35.48099968	        580.03199422	        -14.38494780	          0.25162437	          0.00000000	          0.04756018	          0.00000000	          0.00000000	          0.00000000	          0.00000000	          0.00000000	          0.00000000	          0.00000000	         -5.08970663	          0.00000000	          0.00000000	          0.00000000	          0.00000000	
          0.18006475	        -25.23380826	        551.98584510	        -16.78495166	          0.26188393	          0.00000000	          0.04754652	          0.00000000	          0.00000000	          0.00000000	          0.00000000	          0.00000000	          0.00000000	          0.00000000	         -5.19032162	          0.00000000	          0.00000000	          0.00000000	          0.00000000	
          0.20257285	        -19.07334410	        539.91164114	        -18.57064920	          0.27358081	          0.00000000	          0.04741069	          0.00000000	          0.00000000	          0.00000000	          0.00000000	          0.00000000	          0.00000000	          0.00000000	         -4.74094517	          0.00000000	          0.00000000	          0.00000000	          0.00000000	
